<svg enable-background="new 0 0 136 136" viewBox="0 0 136 136" xmlns="http://www.w3.org/2000/svg"><path d="m32.4 84.2c0 7.1-5.8 12.9-12.9 12.9s-12.9-5.8-12.9-12.9 5.8-12.9 12.9-12.9h12.9z" fill="#e01e5a"/><path d="m38.9 84.2c0-7.1 5.8-12.9 12.9-12.9s12.9 5.8 12.9 12.9v32.3c0 7.1-5.8 12.9-12.9 12.9s-12.9-5.8-12.9-12.9z" fill="#e01e5a"/><path d="m51.8 32.4c-7.1 0-12.9-5.8-12.9-12.9s5.8-12.9 12.9-12.9 12.9 5.8 12.9 12.9v12.9z" fill="#36c5f0"/><path d="m51.8 38.9c7.1 0 12.9 5.8 12.9 12.9s-5.8 12.9-12.9 12.9h-32.3c-7.1 0-12.9-5.8-12.9-12.9s5.8-12.9 12.9-12.9z" fill="#36c5f0"/><path d="m103.6 51.8c0-7.1 5.8-12.9 12.9-12.9s12.9 5.8 12.9 12.9-5.8 12.9-12.9 12.9h-12.9z" fill="#2eb67d"/><path d="m97.1 51.8c0 7.1-5.8 12.9-12.9 12.9s-12.9-5.8-12.9-12.9v-32.3c0-7.1 5.8-12.9 12.9-12.9s12.9 5.8 12.9 12.9z" fill="#2eb67d"/><g fill="#ecb22e"><path d="m84.2 103.6c7.1 0 12.9 5.8 12.9 12.9s-5.8 12.9-12.9 12.9-12.9-5.8-12.9-12.9v-12.9z"/><path d="m84.2 97.1c-7.1 0-12.9-5.8-12.9-12.9s5.8-12.9 12.9-12.9h32.3c7.1 0 12.9 5.8 12.9 12.9s-5.8 12.9-12.9 12.9z"/></g></svg>